PathFileType	4	(X/Y/Z)	C:/Users/beibeiliu/ov580/test_trc/User2\sequence.12_training_dense_right.trc
DataRate	CameraRate	NumFrames	NumMarkers	Units	OrigDataRate	OrigDataStartFrame	OrigNumFrames
120	120	16	19	mm	120	56	446
Frame#	Time	ThumbCMC			ThumbMCP			ThumbIP			ThumbTip			IndexMCP			IndexPIP			IndexTip			MiddleMCP			MiddlePIP			MiddleTip			RingMCP			RingPIP			RingTip			PinkyMCP			PinkyPIP			PinkyTip			BackHand1			BackHand2			BackHand3	
		X0	Y0	Z0	X1	Y1	Z1	X2	Y2	Z2	X3	Y3	Z3	X4	Y4	Z4	X5	Y5	Z5	X6	Y6	Z6	X7	Y7	Z7	X8	Y8	Z8	X9	Y9	Z9	X10	Y10	Z10	X11	Y11	Z11	X12	Y12	Z12	X13	Y13	Z13	X14	Y14	Z14	X15	Y15	Z15	X16	Y16	Z16	X17	Y17	Z17	X18	Y18	Z18	
55	0.458333	39.3586	-13.3133	117.756	17.2232	-25.9694	91.9051	4.64487	-38.0447	63.7072	10.7601	-44.6951	34.9881	33.8485	12.1354	39.899	26.3065	-9.80147	18.1222	25.1677	-40.5867	17.2879	63.3079	26.1152	32.5229	55.0994	27.8068	1.1902	49.1327	25.7964	-31.9011	92.2905	15.8706	34.3805	85.8442	23.5586	4.94871	87.2924	26.0775	-22.8792	109.555	-3.70761	42.7477	116.512	-0.532073	16.0252	117.316	10.3191	-3.80485	99.6478	8.80258	86.9367	107.462	1.95871	120.618	67.0007	17.1373	111.233	
56	0.466667	38.4193	-11.516	112.876	18.2596	-28.1879	86.4501	11.359	-39.2074	55.3828	16.9855	-48.1627	29.9823	42.5208	9.11476	33.0557	33.0834	-11.0371	13.8995	33.3528	-46.6905	13.6848	70.0217	23.6525	29.1424	67.0455	22.4604	-1.77237	61.3586	19.1138	-34.1237	95.3478	14.8465	33.5256	100.544	18.2986	4.36646	100.305	19.3245	-23.0824	114.237	-2.77684	43.4778	125.287	-1.96092	19.8986	132.354	4.63518	-2.74633	102.413	8.12219	88.9488	106.2	6.66608	120.686	69.9884	17.5819	106.911	
57	0.475	37.4831	-12.9144	110.566	19.4692	-30.4319	80.7289	13.6109	-45.5683	48.34	23.8605	-54.4345	30.0612	44.7507	5.41014	30.9549	41.3003	-19.1599	8.73476	43.4415	-53.7946	13.5379	76.8799	17.7437	25.1173	72.9248	16.0443	-8.52975	73.4156	9.12678	-37.2852	103.304	9.69384	32.2546	105.966	12.0301	4.98541	104.532	13.4522	-25.1078	123.551	-4.80316	44.1907	127.814	-3.59853	21.7452	139.57	3.93315	-2.16503	99.8613	9.85388	88.8672	105.228	8.83499	117.697	70.0025	17.5104	103.96	
58	0.483333	37.9889	-14.5149	106.825	20.7635	-35.876	83.5956	14.698	-51.9577	52.9082	29.49	-61.706	28.9142	49.246	-1.17023	29.4409	42.179	-27.9058	8.28729	45.5107	-59.3935	14.8263	78.4335	12.5266	25.5195	79.8926	7.62094	-10.7218	75.8653	0.66938	-41.4043	101.121	7.02208	30.7782	110.455	4.79645	2.84498	110.206	5.466	-23.1192	124.951	-7.60709	47.2527	133.64	-6.92016	23.6943	144.212	0.113343	3.44184	102.844	6.44419	89.4931	104.576	8.82712	122.889	68.6261	16.2349	104.518	
59	0.491667	38.208	-17.3081	109.372	17.7807	-39.365	85.5112	20.4148	-55.3823	53.9431	28.5191	-67.167	33.3008	43.8811	-4.67543	30.6074	43.248	-30.4462	10.8684	48.7359	-64.1051	17.4414	75.7802	8.51896	22.0395	75.8904	3.39715	-9.53202	75.8338	-4.30039	-37.0732	102.714	4.28958	30.4644	108.31	3.24684	3.83993	110.585	1.4127	-22.8749	123.105	-9.56369	49.7972	132.917	-9.32068	26.2964	138.953	-3.613	4.46301	99.4328	6.14747	84.9353	102.918	9.20324	122.172	68.0582	15.3067	105.316	
60	0.5	32.6891	-20.0422	116.685	19.095	-41.0399	91.4024	12.8732	-59.3936	61.1668	22.052	-71.3039	36.1193	38.8526	-6.60438	31.5284	32.895	-35.4607	14.3246	36.7188	-67.9618	21.7379	65.3704	8.36634	28.364	61.0692	2.62802	-4.01011	64.0203	-6.82258	-39.449	95.1424	4.00911	28.4904	97.2151	2.62383	4.56317	98.0392	2.56146	-24.7128	117.484	-11.0544	48.9052	121.037	-7.69488	20.8769	132.758	-2.63294	4.46716	97.3759	5.91604	87.0211	101.474	8.31622	120.775	64.1111	14.2687	104.388	
61	0.508333	29.7712	-22.2831	119.15	9.29576	-46.3495	100.821	3.82986	-63.9104	67.9876	16.1419	-71.7784	45.7177	26.5585	-5.77003	42.389	23.4063	-34.241	19.6854	23.3313	-64.6036	26.0545	56.3982	6.30474	32.4459	44.6253	3.29884	-1.22816	40.27	-4.48843	-30.9969	78.5104	4.3143	32.8515	79.0228	5.64746	8.54919	77.9167	5.95947	-20.8735	103.496	-8.95949	44.6303	110.073	-8.49229	23.5951	115.201	3.12847	-2.00963	90.2296	2.56623	86.6132	97.7918	5.48903	119.768	56.3923	11.2723	110.336	
62	0.516667	25.2927	-24.4983	127.242	6.31564	-47.7944	107.074	-2.85157	-64.4165	73.0615	4.93051	-72.8076	50.2593	18.3767	-7.15779	48.7396	11.4394	-30.8276	28.0279	11.5021	-66.5086	31.6329	41.3313	9.0338	33.0312	29.4186	4.98135	6.12498	23.5978	-2.54073	-27.1338	69.488	4.80697	37.3622	60.8964	9.83922	8.38329	56.9578	11.1815	-21.4387	95.7565	-9.49372	47.6381	95.482	-3.86924	20.7087	96.3853	5.55785	-2.58391	82.6845	1.85409	91.559	95.8513	4.00537	122.419	53.2239	7.75719	113.006	
63	0.525	21.1942	-28.1395	130.668	1.92631	-49.5875	110.755	-10.1539	-65.4123	80.5761	-3.27034	-73.0825	51.8187	9.06621	-8.87601	53.7222	-4.68635	-34.9908	34.0936	6.77245	-67.6694	35.2272	31.5035	8.34709	40.6624	18.8442	6.34143	13.3885	9.08329	0.412862	-22.5099	59.037	6.10942	40.9642	51.8555	10.9127	13.4672	42.9139	13.1105	-13.3463	85.402	-7.8096	48.1081	81.8003	-2.59629	24.7069	84.5916	8.783	1.62242	75.3133	3.94495	90.2972	89.4622	2.42305	124.194	45.6969	5.55908	117.977	
64	0.533333	22.4836	-31.2521	136.985	-3.30418	-51.5694	111.695	-13.7602	-67.4319	84.7858	-8.17262	-72.0382	54.7842	-1.27505	-9.07647	60.1145	-10.51	-37.7477	37.0531	0.602479	-68.435	36.5808	20.0309	8.89366	45.4864	10.8699	6.7473	14.6122	-3.12505	2.30162	-13.8832	49.9522	8.05808	42.948	42.5713	14.8812	12.5435	31.4073	16.4009	-8.42221	76.2642	-5.29833	47.8499	75.833	1.19477	22.5228	78.4457	11.2853	2.74583	70.8413	3.08826	90.5378	85.5134	3.06759	123.439	44.4313	3.74422	121.272	
65	0.541667	18.7011	-33.0762	134.714	-0.388278	-52.4702	111.56	-14.2834	-66.4508	82.7108	-10.0364	-73.1356	56.0435	-2.54306	-10.3446	59.3065	-7.48254	-36.478	35.0212	-0.961374	-66.0876	33.7865	19.7557	10.1593	41.2691	7.36962	7.21315	15.7354	-6.50201	2.5518	-11.5935	43.4866	9.47271	41.6273	35.7741	14.5376	16.497	24.4865	17.9652	-10.4157	73.0187	-3.53971	45.4908	74.6199	2.58775	19.3906	72.8267	11.9137	2.08168	68.7979	2.83095	93.401	81.3129	1.22508	125.015	41.9607	5.55704	118.546	
66	0.55	17.9388	-33.9789	131.275	0.548891	-53.8363	108.685	-13.3379	-66.4279	75.1252	-6.52635	-71.7618	50.5682	0.183166	-12.3522	52.3294	-8.94974	-34.2264	32.8715	1.64737	-69.9991	30.4549	22.0731	9.18088	42.9329	9.43765	8.0672	12.5787	-1.79961	3.4248	-19.4344	47.7134	11.116	37.3871	40.2172	15.8984	11.1813	29.7131	17.7408	-11.8706	76.5617	-2.98488	45.5172	76.6076	1.27382	23.5942	80.5752	13.4942	0.0399787	70.2803	4.59382	88.3994	82.0179	1.29189	120.72	42.5026	2.61049	119.067	
67	0.558333	19.021	-33.9921	127.261	3.33588	-53.3933	101.817	-3.90401	-64.7461	68.1836	-0.950475	-72.8948	44.2644	7.55957	-11.7063	46.6265	0.235483	-36.2941	26.1415	12.8164	-68.022	24.3583	25.5625	9.07308	36.0277	19.77	8.41486	7.51771	11.4391	4.30062	-22.6824	58.0172	8.90257	38.9551	50.5001	13.7777	12.0522	42.5065	15.7874	-16.1486	86.6667	-4.17277	45.5012	84.7464	4.26996	18.571	90.1407	13.3418	1.20256	73.8887	3.00851	90.9611	87.0241	2.38353	122.633	41.649	3.57406	114.465	
68	0.566667	23.582	-34.2584	119.908	10.5957	-53.0196	95.3952	0.309194	-68.4252	60.6715	9.37594	-73.6451	35.0998	19.9046	-11.2598	40.8155	16.8218	-33.4316	16.7855	22.9439	-67.3643	18.3657	41.8313	9.85576	28.0992	35.9517	6.98471	0.403618	29.7747	3.20627	-31.2245	71.1585	8.30674	33.2176	64.8294	11.37	7.36436	58.9079	15.0313	-23.5289	95.9268	-4.37693	43.8149	97.7863	-0.516151	22.0261	103.692	13.0626	-1.89422	78.5408	3.07485	89.7974	88.2292	2.83824	118.761	50.5775	3.90736	108.15	
69	0.575	32.4207	-31.2504	108.231	18.7629	-51.7416	86.0032	13.9518	-66.4677	49.7732	23.988	-74.8537	29.394	30.4159	-13.4365	29.3473	30.7872	-36.7953	9.03782	38.6067	-68.7643	11.9813	55.9656	7.82338	24.4542	51.8083	4.93993	-6.13462	54.8126	-0.377434	-39.1126	85.543	5.60691	31.4337	83.067	7.58795	4.45178	86.8753	10.2887	-26.7313	107.509	-5.36283	41.7322	118.723	-3.28237	22.7812	124.985	5.91598	1.51471	90.0691	3.74065	84.2696	90.2126	2.68699	120.779	54.4079	2.37308	106.789	
70	0.583333	39.5334	-30.6862	103.862	28.3395	-51.7767	76.2716	23.6529	-68.7974	43.3806	37.7508	-76.3624	20.7177	49.2019	-14.5671	20.4865	47.4336	-39.4509	2.6549	53.5665	-74.5966	11.0004	76.1526	5.41028	19.3997	70.5376	1.43285	-9.86764	76.7948	-4.71618	-41.4002	98.6687	2.35329	27.8067	101.754	4.65075	1.52902	103.57	5.79857	-27.9781	121.813	-7.27615	41.2742	134.067	-5.16728	19.0011	139.234	2.42144	2.54363	100.252	1.55892	80.7886	98.737	2.79826	113.664	64.2912	6.29561	98.2855	
